<mxfile host="app.diagrams.net" modified="2024-06-18T06:28:01.461Z" agent="Mozilla/5.0 (Macintosh; Intel Mac OS X 10_15_7) AppleWebKit/605.1.15 (KHTML, like Gecko) Version/17.4.1 Safari/605.1.15" etag="zCEpCu8s9EMGihly-w9G" version="24.5.5" type="github" pages="3">
  <diagram id="g2_v9cT1EzaR5zWpqAP8" name="架构初版">
    <mxGraphModel dx="1306" dy="1914" grid="1" gridSize="10" guides="1" tooltips="1" connect="1" arrows="1" fold="1" page="1" pageScale="1" pageWidth="827" pageHeight="1169" math="0" shadow="0">
      <root>
        <mxCell id="0" />
        <mxCell id="1" parent="0" />
        <mxCell id="RKbm0E23tvuXLxRgm9Vs-73" value="" style="rounded=1;whiteSpace=wrap;html=1;shadow=1;fontFamily=Comic Sans MS;fillColor=#ffe6cc;strokeColor=#d79b00;" parent="1" vertex="1">
          <mxGeometry x="120" y="245.5" width="580" height="328.5" as="geometry" />
        </mxCell>
        <mxCell id="RKbm0E23tvuXLxRgm9Vs-71" value="" style="rounded=1;whiteSpace=wrap;html=1;glass=0;shadow=1;fontFamily=Comic Sans MS;fillColor=#d0cee2;strokeColor=#56517e;" parent="1" vertex="1">
          <mxGeometry x="430" y="350" width="260" height="210" as="geometry" />
        </mxCell>
        <mxCell id="RKbm0E23tvuXLxRgm9Vs-38" value="" style="rounded=1;whiteSpace=wrap;html=1;shadow=1;fontFamily=Comic Sans MS;fillColor=#d0cee2;strokeColor=#56517e;" parent="1" vertex="1">
          <mxGeometry x="140" y="350" width="260" height="210" as="geometry" />
        </mxCell>
        <mxCell id="RKbm0E23tvuXLxRgm9Vs-63" value="" style="edgeStyle=orthogonalEdgeStyle;rounded=0;orthogonalLoop=1;jettySize=auto;html=1;fontFamily=Comic Sans MS;strokeWidth=2;shadow=1;" parent="1" source="RKbm0E23tvuXLxRgm9Vs-1" target="RKbm0E23tvuXLxRgm9Vs-60" edge="1">
          <mxGeometry relative="1" as="geometry" />
        </mxCell>
        <mxCell id="RKbm0E23tvuXLxRgm9Vs-1" value="Tube消息队列" style="rounded=1;whiteSpace=wrap;html=1;fillColor=#f5f5f5;gradientColor=#b3b3b3;strokeColor=#666666;shadow=1;fontFamily=Comic Sans MS;" parent="1" vertex="1">
          <mxGeometry x="161" y="586" width="210" height="60" as="geometry" />
        </mxCell>
        <mxCell id="RKbm0E23tvuXLxRgm9Vs-51" value="" style="edgeStyle=orthogonalEdgeStyle;rounded=0;orthogonalLoop=1;jettySize=auto;html=1;fontFamily=Comic Sans MS;strokeWidth=2;shadow=1;" parent="1" source="RKbm0E23tvuXLxRgm9Vs-3" target="RKbm0E23tvuXLxRgm9Vs-7" edge="1">
          <mxGeometry relative="1" as="geometry" />
        </mxCell>
        <mxCell id="RKbm0E23tvuXLxRgm9Vs-70" value="分钟落库" style="edgeLabel;html=1;align=center;verticalAlign=middle;resizable=0;points=[];fontFamily=Comic Sans MS;labelBackgroundColor=#FFFFFF;" parent="RKbm0E23tvuXLxRgm9Vs-51" vertex="1" connectable="0">
          <mxGeometry x="-0.1236" y="-2" relative="1" as="geometry">
            <mxPoint y="1" as="offset" />
          </mxGeometry>
        </mxCell>
        <mxCell id="RKbm0E23tvuXLxRgm9Vs-68" style="edgeStyle=orthogonalEdgeStyle;rounded=0;orthogonalLoop=1;jettySize=auto;html=1;exitX=0.5;exitY=0;exitDx=0;exitDy=0;entryX=0.208;entryY=0.983;entryDx=0;entryDy=0;entryPerimeter=0;strokeColor=#B3B3B3;fontFamily=Comic Sans MS;fillColor=#f5f5f5;gradientColor=#b3b3b3;strokeWidth=2;" parent="1" source="RKbm0E23tvuXLxRgm9Vs-3" target="RKbm0E23tvuXLxRgm9Vs-4" edge="1">
          <mxGeometry relative="1" as="geometry" />
        </mxCell>
        <mxCell id="RKbm0E23tvuXLxRgm9Vs-3" value="ETL转换(Oceanus任务)" style="rounded=1;whiteSpace=wrap;html=1;fillColor=#ffcd28;gradientColor=#ffa500;strokeColor=#d79b00;shadow=1;fontFamily=Comic Sans MS;" parent="1" vertex="1">
          <mxGeometry x="161" y="371.5" width="210" height="60" as="geometry" />
        </mxCell>
        <mxCell id="RKbm0E23tvuXLxRgm9Vs-4" value="DWD" style="rounded=1;whiteSpace=wrap;html=1;fillColor=#dae8fc;gradientColor=#7ea6e0;strokeColor=#6c8ebf;shadow=1;fontFamily=Comic Sans MS;" parent="1" vertex="1">
          <mxGeometry x="160" y="270" width="510" height="60" as="geometry" />
        </mxCell>
        <mxCell id="RKbm0E23tvuXLxRgm9Vs-65" value="" style="edgeStyle=orthogonalEdgeStyle;rounded=0;orthogonalLoop=1;jettySize=auto;html=1;fontFamily=Comic Sans MS;strokeWidth=2;shadow=1;" parent="1" source="RKbm0E23tvuXLxRgm9Vs-5" target="RKbm0E23tvuXLxRgm9Vs-61" edge="1">
          <mxGeometry relative="1" as="geometry" />
        </mxCell>
        <mxCell id="RKbm0E23tvuXLxRgm9Vs-5" value="Hive" style="rounded=1;whiteSpace=wrap;html=1;fillColor=#f5f5f5;gradientColor=#b3b3b3;strokeColor=#666666;shadow=1;fontFamily=Comic Sans MS;" parent="1" vertex="1">
          <mxGeometry x="460" y="586" width="211" height="60" as="geometry" />
        </mxCell>
        <mxCell id="RKbm0E23tvuXLxRgm9Vs-69" style="edgeStyle=orthogonalEdgeStyle;rounded=0;orthogonalLoop=1;jettySize=auto;html=1;exitX=0.5;exitY=0;exitDx=0;exitDy=0;entryX=0.794;entryY=1;entryDx=0;entryDy=0;entryPerimeter=0;fontFamily=Comic Sans MS;fillColor=#f5f5f5;gradientColor=#b3b3b3;strokeColor=#000000;shadow=1;strokeWidth=2;" parent="1" source="RKbm0E23tvuXLxRgm9Vs-7" target="RKbm0E23tvuXLxRgm9Vs-4" edge="1">
          <mxGeometry relative="1" as="geometry" />
        </mxCell>
        <mxCell id="RKbm0E23tvuXLxRgm9Vs-7" value="数据湖(Iceberg)" style="rounded=1;whiteSpace=wrap;html=1;fillColor=#f5f5f5;strokeColor=#666666;gradientColor=#b3b3b3;shadow=1;fontFamily=Comic Sans MS;" parent="1" vertex="1">
          <mxGeometry x="460" y="371.5" width="211" height="60" as="geometry" />
        </mxCell>
        <mxCell id="RKbm0E23tvuXLxRgm9Vs-18" value="DWS" style="rounded=1;whiteSpace=wrap;html=1;fillColor=#dae8fc;gradientColor=#7ea6e0;strokeColor=#6c8ebf;shadow=1;fontFamily=Comic Sans MS;" parent="1" vertex="1">
          <mxGeometry x="161" y="170" width="506" height="60" as="geometry" />
        </mxCell>
        <mxCell id="RKbm0E23tvuXLxRgm9Vs-19" value="ADS" style="rounded=1;whiteSpace=wrap;html=1;fillColor=#dae8fc;gradientColor=#7ea6e0;strokeColor=#6c8ebf;shadow=1;fontFamily=Comic Sans MS;" parent="1" vertex="1">
          <mxGeometry x="160" y="80" width="510" height="60" as="geometry" />
        </mxCell>
        <mxCell id="RKbm0E23tvuXLxRgm9Vs-20" value="大屏、报表、数据分析" style="rounded=1;whiteSpace=wrap;html=1;fillColor=#d5e8d4;gradientColor=#97d077;strokeColor=#82b366;shadow=1;fontFamily=Comic Sans MS;" parent="1" vertex="1">
          <mxGeometry x="306" y="-20" width="360" height="60" as="geometry" />
        </mxCell>
        <mxCell id="RKbm0E23tvuXLxRgm9Vs-22" value="业务监控&lt;br&gt;外显数据&lt;br&gt;推荐业务&lt;br&gt;热度值" style="rounded=1;whiteSpace=wrap;html=1;fillColor=#d5e8d4;gradientColor=#97d077;strokeColor=#82b366;shadow=1;fontFamily=Comic Sans MS;" parent="1" vertex="1">
          <mxGeometry x="160" y="-20" width="130" height="60" as="geometry" />
        </mxCell>
        <mxCell id="RKbm0E23tvuXLxRgm9Vs-25" value="数据修复" style="html=1;shadow=1;dashed=0;align=center;verticalAlign=middle;shape=mxgraph.arrows2.uTurnArrow;dy=7.5;arrowHead=43;dx2=15;direction=east;flipH=1;fillColor=#f8cecc;gradientColor=#ea6b66;strokeColor=#b85450;fontFamily=Comic Sans MS;" parent="1" vertex="1">
          <mxGeometry x="680" y="390" width="60" height="110" as="geometry" />
        </mxCell>
        <mxCell id="RKbm0E23tvuXLxRgm9Vs-30" value="" style="endArrow=none;dashed=1;html=1;rounded=0;shadow=1;fontFamily=Comic Sans MS;strokeWidth=2;" parent="1" edge="1">
          <mxGeometry width="50" height="50" relative="1" as="geometry">
            <mxPoint x="139" y="60" as="sourcePoint" />
            <mxPoint x="689" y="60" as="targetPoint" />
          </mxGeometry>
        </mxCell>
        <mxCell id="RKbm0E23tvuXLxRgm9Vs-31" value="" style="endArrow=none;dashed=1;html=1;rounded=0;shadow=1;fontFamily=Comic Sans MS;strokeWidth=2;" parent="1" edge="1">
          <mxGeometry width="50" height="50" relative="1" as="geometry">
            <mxPoint x="139" y="-40" as="sourcePoint" />
            <mxPoint x="689" y="-40" as="targetPoint" />
          </mxGeometry>
        </mxCell>
        <mxCell id="RKbm0E23tvuXLxRgm9Vs-32" value="实时" style="text;html=1;align=center;verticalAlign=middle;resizable=0;points=[];autosize=1;strokeColor=none;fillColor=none;fontFamily=Comic Sans MS;shadow=1;" parent="1" vertex="1">
          <mxGeometry x="190" y="-70" width="50" height="30" as="geometry" />
        </mxCell>
        <mxCell id="RKbm0E23tvuXLxRgm9Vs-33" value="准实时、小时、天" style="text;html=1;align=center;verticalAlign=middle;resizable=0;points=[];autosize=1;strokeColor=none;fillColor=none;fontFamily=Comic Sans MS;shadow=1;" parent="1" vertex="1">
          <mxGeometry x="440" y="-70" width="120" height="30" as="geometry" />
        </mxCell>
        <mxCell id="RKbm0E23tvuXLxRgm9Vs-56" style="edgeStyle=orthogonalEdgeStyle;rounded=0;orthogonalLoop=1;jettySize=auto;html=1;exitX=0.5;exitY=0;exitDx=0;exitDy=0;entryX=0.5;entryY=1;entryDx=0;entryDy=0;fontFamily=Comic Sans MS;strokeWidth=2;shadow=1;" parent="1" source="RKbm0E23tvuXLxRgm9Vs-54" target="RKbm0E23tvuXLxRgm9Vs-1" edge="1">
          <mxGeometry relative="1" as="geometry" />
        </mxCell>
        <mxCell id="RKbm0E23tvuXLxRgm9Vs-58" value="实时转发" style="edgeLabel;html=1;align=center;verticalAlign=middle;resizable=0;points=[];fontFamily=Comic Sans MS;" parent="RKbm0E23tvuXLxRgm9Vs-56" vertex="1" connectable="0">
          <mxGeometry x="-0.0223" y="3" relative="1" as="geometry">
            <mxPoint x="1" as="offset" />
          </mxGeometry>
        </mxCell>
        <mxCell id="RKbm0E23tvuXLxRgm9Vs-57" style="edgeStyle=orthogonalEdgeStyle;rounded=0;orthogonalLoop=1;jettySize=auto;html=1;exitX=0.5;exitY=0;exitDx=0;exitDy=0;entryX=0.5;entryY=1;entryDx=0;entryDy=0;fontFamily=Comic Sans MS;strokeWidth=2;shadow=1;" parent="1" source="RKbm0E23tvuXLxRgm9Vs-54" target="RKbm0E23tvuXLxRgm9Vs-5" edge="1">
          <mxGeometry relative="1" as="geometry" />
        </mxCell>
        <mxCell id="RKbm0E23tvuXLxRgm9Vs-59" value="小时落地" style="edgeLabel;html=1;align=center;verticalAlign=middle;resizable=0;points=[];fontFamily=Comic Sans MS;" parent="RKbm0E23tvuXLxRgm9Vs-57" vertex="1" connectable="0">
          <mxGeometry y="-2" relative="1" as="geometry">
            <mxPoint as="offset" />
          </mxGeometry>
        </mxCell>
        <mxCell id="RKbm0E23tvuXLxRgm9Vs-54" value="ATTA" style="rounded=1;whiteSpace=wrap;html=1;fillColor=#f5f5f5;gradientColor=#b3b3b3;strokeColor=#666666;shadow=1;fontFamily=Comic Sans MS;" parent="1" vertex="1">
          <mxGeometry x="162" y="691" width="509" height="60" as="geometry" />
        </mxCell>
        <mxCell id="RKbm0E23tvuXLxRgm9Vs-64" value="" style="edgeStyle=orthogonalEdgeStyle;rounded=0;orthogonalLoop=1;jettySize=auto;html=1;fontFamily=Comic Sans MS;strokeWidth=2;shadow=1;" parent="1" source="RKbm0E23tvuXLxRgm9Vs-60" target="RKbm0E23tvuXLxRgm9Vs-3" edge="1">
          <mxGeometry relative="1" as="geometry" />
        </mxCell>
        <mxCell id="RKbm0E23tvuXLxRgm9Vs-60" value="ODS" style="rounded=1;whiteSpace=wrap;html=1;fillColor=#dae8fc;gradientColor=#7ea6e0;strokeColor=#6c8ebf;shadow=1;fontFamily=Comic Sans MS;" parent="1" vertex="1">
          <mxGeometry x="162" y="470" width="208" height="50" as="geometry" />
        </mxCell>
        <mxCell id="RKbm0E23tvuXLxRgm9Vs-61" value="ODS" style="rounded=1;whiteSpace=wrap;html=1;fillColor=#dae8fc;gradientColor=#7ea6e0;strokeColor=#6c8ebf;shadow=1;fontFamily=Comic Sans MS;" parent="1" vertex="1">
          <mxGeometry x="461.5" y="470" width="208" height="50" as="geometry" />
        </mxCell>
      </root>
    </mxGraphModel>
  </diagram>
  <diagram name="架构V2.0" id="HfrG5RU1GaJGfkIJJtHm">
    <mxGraphModel dx="2460" dy="2100" grid="1" gridSize="10" guides="1" tooltips="1" connect="1" arrows="1" fold="1" page="1" pageScale="1" pageWidth="827" pageHeight="1169" math="0" shadow="0">
      <root>
        <mxCell id="my_VPW_1-1HBJQWfNaTP-0" />
        <mxCell id="my_VPW_1-1HBJQWfNaTP-1" parent="my_VPW_1-1HBJQWfNaTP-0" />
        <mxCell id="Bs_Lra9X7EK5ux7XXv29-1" value="" style="rounded=1;whiteSpace=wrap;html=1;shadow=1;fontFamily=Comic Sans MS;fillColor=#ffe6cc;strokeColor=none;" parent="my_VPW_1-1HBJQWfNaTP-1" vertex="1">
          <mxGeometry x="110" y="100" width="720" height="320" as="geometry" />
        </mxCell>
        <mxCell id="N_heTWsp_wVdA5qCoTZY-2" style="edgeStyle=orthogonalEdgeStyle;rounded=0;orthogonalLoop=1;jettySize=auto;html=1;exitX=0.5;exitY=0;exitDx=0;exitDy=0;entryX=0.556;entryY=1.03;entryDx=0;entryDy=0;entryPerimeter=0;sketch=1;curveFitting=1;jiggle=2;" parent="my_VPW_1-1HBJQWfNaTP-1" source="c-xNArOHKuVGnbXL8WvN-1" target="N_heTWsp_wVdA5qCoTZY-0" edge="1">
          <mxGeometry relative="1" as="geometry" />
        </mxCell>
        <mxCell id="c-xNArOHKuVGnbXL8WvN-1" value="" style="rounded=1;whiteSpace=wrap;html=1;shadow=1;fontFamily=Comic Sans MS;fillColor=#f5f5f5;fontColor=#333333;strokeColor=#666666;" parent="my_VPW_1-1HBJQWfNaTP-1" vertex="1">
          <mxGeometry x="640" y="451" width="190" height="100" as="geometry" />
        </mxCell>
        <mxCell id="c-xNArOHKuVGnbXL8WvN-15" value="" style="rounded=1;whiteSpace=wrap;html=1;shadow=1;fontFamily=Comic Sans MS;fillColor=#f5f5f5;fontColor=#333333;strokeColor=#666666;" parent="my_VPW_1-1HBJQWfNaTP-1" vertex="1">
          <mxGeometry x="107.5" y="-116" width="722.5" height="170" as="geometry" />
        </mxCell>
        <mxCell id="my_VPW_1-1HBJQWfNaTP-2" value="" style="rounded=1;whiteSpace=wrap;html=1;shadow=1;fontFamily=Comic Sans MS;fillColor=#f5f5f5;fontColor=#333333;strokeColor=#666666;" parent="my_VPW_1-1HBJQWfNaTP-1" vertex="1">
          <mxGeometry x="110" y="450" width="520" height="100" as="geometry" />
        </mxCell>
        <mxCell id="my_VPW_1-1HBJQWfNaTP-29" value="ATTA" style="rounded=1;whiteSpace=wrap;html=1;shadow=1;fontFamily=Comic Sans MS;fillColor=#f5f5f5;fontColor=#333333;strokeColor=#666666;" parent="my_VPW_1-1HBJQWfNaTP-1" vertex="1">
          <mxGeometry x="110" y="570" width="720" height="50" as="geometry" />
        </mxCell>
        <mxCell id="Bs_Lra9X7EK5ux7XXv29-0" value="DWD" style="rounded=1;whiteSpace=wrap;html=1;shadow=1;fontFamily=Comic Sans MS;fillColor=#dae8fc;strokeColor=#6c8ebf;" parent="my_VPW_1-1HBJQWfNaTP-1" vertex="1">
          <mxGeometry x="147" y="-23" width="643" height="50" as="geometry" />
        </mxCell>
        <mxCell id="Bs_Lra9X7EK5ux7XXv29-2" value="实时数据SLA链路" style="text;html=1;align=center;verticalAlign=middle;resizable=0;points=[];autosize=1;strokeColor=none;fillColor=none;fontSize=15;fontFamily=Helvetica;fontColor=#000000;" parent="my_VPW_1-1HBJQWfNaTP-1" vertex="1">
          <mxGeometry x="-30" y="245" width="140" height="30" as="geometry" />
        </mxCell>
        <mxCell id="Bs_Lra9X7EK5ux7XXv29-3" value="离线基础数仓" style="text;html=1;align=center;verticalAlign=middle;resizable=0;points=[];autosize=1;strokeColor=none;fillColor=none;fontSize=15;fontFamily=Helvetica;fontColor=#000000;" parent="my_VPW_1-1HBJQWfNaTP-1" vertex="1">
          <mxGeometry y="-43" width="110" height="30" as="geometry" />
        </mxCell>
        <mxCell id="Bs_Lra9X7EK5ux7XXv29-15" value="" style="edgeStyle=orthogonalEdgeStyle;rounded=0;orthogonalLoop=1;jettySize=auto;html=1;labelBackgroundColor=none;strokeColor=#000000;fontFamily=Helvetica;fontSize=15;fontColor=#000000;sketch=1;curveFitting=1;jiggle=2;" parent="my_VPW_1-1HBJQWfNaTP-1" source="Bs_Lra9X7EK5ux7XXv29-9" target="Bs_Lra9X7EK5ux7XXv29-11" edge="1">
          <mxGeometry relative="1" as="geometry" />
        </mxCell>
        <mxCell id="c-xNArOHKuVGnbXL8WvN-7" value="校验失败" style="edgeLabel;html=1;align=center;verticalAlign=middle;resizable=0;points=[];fontSize=15;fontFamily=Helvetica;fontColor=#FF0000;labelBackgroundColor=default;" parent="Bs_Lra9X7EK5ux7XXv29-15" vertex="1" connectable="0">
          <mxGeometry x="-0.2194" y="-2" relative="1" as="geometry">
            <mxPoint x="12" y="-2" as="offset" />
          </mxGeometry>
        </mxCell>
        <mxCell id="c-xNArOHKuVGnbXL8WvN-5" value="" style="edgeStyle=orthogonalEdgeStyle;rounded=0;orthogonalLoop=1;jettySize=auto;html=1;labelBackgroundColor=none;strokeColor=#000000;fontFamily=Helvetica;fontSize=15;fontColor=#000000;entryX=0.35;entryY=0.993;entryDx=0;entryDy=0;entryPerimeter=0;sketch=1;curveFitting=1;jiggle=2;" parent="my_VPW_1-1HBJQWfNaTP-1" source="Bs_Lra9X7EK5ux7XXv29-9" target="Bs_Lra9X7EK5ux7XXv29-0" edge="1">
          <mxGeometry relative="1" as="geometry" />
        </mxCell>
        <mxCell id="c-xNArOHKuVGnbXL8WvN-6" value="校验通过" style="edgeLabel;html=1;align=center;verticalAlign=middle;resizable=0;points=[];fontSize=15;fontFamily=Helvetica;fontColor=#009900;labelBackgroundColor=default;" parent="c-xNArOHKuVGnbXL8WvN-5" vertex="1" connectable="0">
          <mxGeometry x="-0.13" y="-1" relative="1" as="geometry">
            <mxPoint y="1" as="offset" />
          </mxGeometry>
        </mxCell>
        <mxCell id="Bs_Lra9X7EK5ux7XXv29-9" value="校验结果判断" style="rhombus;whiteSpace=wrap;html=1;shadow=1;labelBackgroundColor=none;strokeColor=#82b366;strokeWidth=1;fontFamily=Helvetica;fontSize=15;sketch=1;curveFitting=1;jiggle=2;fillColor=#d5e8d4;" parent="my_VPW_1-1HBJQWfNaTP-1" vertex="1">
          <mxGeometry x="293.5" y="120" width="160" height="80" as="geometry" />
        </mxCell>
        <mxCell id="c-xNArOHKuVGnbXL8WvN-9" style="edgeStyle=orthogonalEdgeStyle;rounded=0;orthogonalLoop=1;jettySize=auto;html=1;exitX=0.5;exitY=1;exitDx=0;exitDy=0;entryX=1;entryY=0.5;entryDx=0;entryDy=0;labelBackgroundColor=none;strokeColor=#000000;fontFamily=Helvetica;fontSize=15;fontColor=#000000;sketch=1;curveFitting=1;jiggle=2;" parent="my_VPW_1-1HBJQWfNaTP-1" source="Bs_Lra9X7EK5ux7XXv29-11" target="Bs_Lra9X7EK5ux7XXv29-12" edge="1">
          <mxGeometry relative="1" as="geometry" />
        </mxCell>
        <mxCell id="c-xNArOHKuVGnbXL8WvN-11" value="" style="edgeStyle=orthogonalEdgeStyle;rounded=0;orthogonalLoop=1;jettySize=auto;html=1;labelBackgroundColor=none;strokeColor=#000000;fontFamily=Helvetica;fontSize=15;fontColor=#000000;sketch=1;curveFitting=1;jiggle=2;" parent="my_VPW_1-1HBJQWfNaTP-1" source="Bs_Lra9X7EK5ux7XXv29-11" target="Bs_Lra9X7EK5ux7XXv29-13" edge="1">
          <mxGeometry relative="1" as="geometry" />
        </mxCell>
        <mxCell id="Bs_Lra9X7EK5ux7XXv29-11" value="阻塞/重试策略" style="rounded=1;whiteSpace=wrap;html=1;shadow=1;fontFamily=Comic Sans MS;sketch=1;curveFitting=1;jiggle=2;fillColor=#ffcccc;strokeColor=#36393d;" parent="my_VPW_1-1HBJQWfNaTP-1" vertex="1">
          <mxGeometry x="565.48" y="130" width="112.26" height="60" as="geometry" />
        </mxCell>
        <mxCell id="c-xNArOHKuVGnbXL8WvN-10" value="" style="edgeStyle=orthogonalEdgeStyle;rounded=0;orthogonalLoop=1;jettySize=auto;html=1;labelBackgroundColor=none;strokeColor=#000000;fontFamily=Helvetica;fontSize=15;fontColor=#000000;sketch=1;curveFitting=1;jiggle=2;" parent="my_VPW_1-1HBJQWfNaTP-1" source="Bs_Lra9X7EK5ux7XXv29-12" target="c-xNArOHKuVGnbXL8WvN-2" edge="1">
          <mxGeometry relative="1" as="geometry" />
        </mxCell>
        <mxCell id="Bs_Lra9X7EK5ux7XXv29-12" value="基于Ftime的时间采样" style="rounded=1;whiteSpace=wrap;html=1;shadow=1;fontFamily=Comic Sans MS;sketch=1;curveFitting=1;jiggle=2;fillColor=#e1d5e7;strokeColor=#9673a6;" parent="my_VPW_1-1HBJQWfNaTP-1" vertex="1">
          <mxGeometry x="198.5" y="300" width="350" height="50" as="geometry" />
        </mxCell>
        <mxCell id="c-xNArOHKuVGnbXL8WvN-12" style="edgeStyle=orthogonalEdgeStyle;rounded=0;orthogonalLoop=1;jettySize=auto;html=1;exitX=0.5;exitY=0;exitDx=0;exitDy=0;entryX=0.941;entryY=1.021;entryDx=0;entryDy=0;labelBackgroundColor=none;strokeColor=#000000;fontFamily=Helvetica;fontSize=15;fontColor=#000000;entryPerimeter=0;sketch=1;curveFitting=1;jiggle=2;" parent="my_VPW_1-1HBJQWfNaTP-1" source="Bs_Lra9X7EK5ux7XXv29-13" target="Bs_Lra9X7EK5ux7XXv29-0" edge="1">
          <mxGeometry relative="1" as="geometry" />
        </mxCell>
        <mxCell id="c-xNArOHKuVGnbXL8WvN-13" value="回补" style="edgeLabel;html=1;align=center;verticalAlign=middle;resizable=0;points=[];fontSize=15;fontFamily=Helvetica;fontColor=#FF0000;" parent="c-xNArOHKuVGnbXL8WvN-12" vertex="1" connectable="0">
          <mxGeometry x="-0.0415" relative="1" as="geometry">
            <mxPoint as="offset" />
          </mxGeometry>
        </mxCell>
        <mxCell id="Bs_Lra9X7EK5ux7XXv29-13" value="数据修复策略" style="rounded=1;whiteSpace=wrap;html=1;shadow=1;fontFamily=Comic Sans MS;sketch=1;curveFitting=1;jiggle=2;fillColor=#ffcccc;strokeColor=#36393d;" parent="my_VPW_1-1HBJQWfNaTP-1" vertex="1">
          <mxGeometry x="697.74" y="130" width="112.26" height="60" as="geometry" />
        </mxCell>
        <mxCell id="c-xNArOHKuVGnbXL8WvN-8" style="edgeStyle=orthogonalEdgeStyle;rounded=0;orthogonalLoop=1;jettySize=auto;html=1;exitX=0.5;exitY=0;exitDx=0;exitDy=0;entryX=0.5;entryY=1;entryDx=0;entryDy=0;labelBackgroundColor=none;strokeColor=#000000;fontFamily=Helvetica;fontSize=15;fontColor=#000000;sketch=1;curveFitting=1;jiggle=2;" parent="my_VPW_1-1HBJQWfNaTP-1" source="c-xNArOHKuVGnbXL8WvN-2" target="Bs_Lra9X7EK5ux7XXv29-9" edge="1">
          <mxGeometry relative="1" as="geometry" />
        </mxCell>
        <mxCell id="c-xNArOHKuVGnbXL8WvN-2" value="SLA指标校验" style="rounded=1;whiteSpace=wrap;html=1;shadow=1;fontFamily=Comic Sans MS;sketch=1;curveFitting=1;jiggle=2;fillColor=#ffff88;strokeColor=default;" parent="my_VPW_1-1HBJQWfNaTP-1" vertex="1">
          <mxGeometry x="198.5" y="222" width="350" height="50" as="geometry" />
        </mxCell>
        <mxCell id="c-xNArOHKuVGnbXL8WvN-14" value="DWS" style="rounded=1;whiteSpace=wrap;html=1;shadow=1;fontFamily=Comic Sans MS;fillColor=#dae8fc;strokeColor=#6c8ebf;" parent="my_VPW_1-1HBJQWfNaTP-1" vertex="1">
          <mxGeometry x="147" y="-83" width="643" height="40" as="geometry" />
        </mxCell>
        <mxCell id="c-xNArOHKuVGnbXL8WvN-16" value="数据处理" style="text;html=1;align=center;verticalAlign=middle;resizable=0;points=[];autosize=1;strokeColor=none;fillColor=none;fontSize=15;fontFamily=Helvetica;fontColor=#000000;" parent="my_VPW_1-1HBJQWfNaTP-1" vertex="1">
          <mxGeometry x="15" y="490" width="80" height="30" as="geometry" />
        </mxCell>
        <mxCell id="N_heTWsp_wVdA5qCoTZY-4" style="edgeStyle=orthogonalEdgeStyle;rounded=0;orthogonalLoop=1;jettySize=auto;html=1;exitX=0.5;exitY=0;exitDx=0;exitDy=0;entryX=0.5;entryY=1;entryDx=0;entryDy=0;sketch=1;curveFitting=1;jiggle=2;" parent="my_VPW_1-1HBJQWfNaTP-1" source="c-xNArOHKuVGnbXL8WvN-17" target="Bs_Lra9X7EK5ux7XXv29-12" edge="1">
          <mxGeometry relative="1" as="geometry" />
        </mxCell>
        <mxCell id="c-xNArOHKuVGnbXL8WvN-17" value="数据湖IceBerg" style="rounded=1;whiteSpace=wrap;html=1;shadow=1;fontFamily=Comic Sans MS;fillColor=#dae8fc;strokeColor=#6c8ebf;" parent="my_VPW_1-1HBJQWfNaTP-1" vertex="1">
          <mxGeometry x="147" y="475" width="453" height="60" as="geometry" />
        </mxCell>
        <mxCell id="c-xNArOHKuVGnbXL8WvN-18" value="离线数据" style="rounded=1;whiteSpace=wrap;html=1;shadow=1;fontFamily=Comic Sans MS;fillColor=#dae8fc;strokeColor=#6c8ebf;" parent="my_VPW_1-1HBJQWfNaTP-1" vertex="1">
          <mxGeometry x="667.74" y="470" width="132.26" height="60" as="geometry" />
        </mxCell>
        <mxCell id="N_heTWsp_wVdA5qCoTZY-6" style="edgeStyle=orthogonalEdgeStyle;rounded=0;orthogonalLoop=1;jettySize=auto;html=1;exitX=0;exitY=0.5;exitDx=0;exitDy=0;entryX=0.5;entryY=1;entryDx=0;entryDy=0;sketch=1;curveFitting=1;jiggle=2;" parent="my_VPW_1-1HBJQWfNaTP-1" source="N_heTWsp_wVdA5qCoTZY-0" target="Bs_Lra9X7EK5ux7XXv29-12" edge="1">
          <mxGeometry relative="1" as="geometry" />
        </mxCell>
        <mxCell id="N_heTWsp_wVdA5qCoTZY-0" value="ods等效计算" style="rounded=1;whiteSpace=wrap;html=1;shadow=1;fontFamily=Comic Sans MS;sketch=1;curveFitting=1;jiggle=2;fillColor=#fff2cc;strokeColor=#d6b656;" parent="my_VPW_1-1HBJQWfNaTP-1" vertex="1">
          <mxGeometry x="635" y="350" width="180" height="50" as="geometry" />
        </mxCell>
        <mxCell id="N_heTWsp_wVdA5qCoTZY-7" value="实时数据处理" style="text;html=1;align=center;verticalAlign=middle;resizable=0;points=[];autosize=1;strokeColor=none;fillColor=none;" parent="my_VPW_1-1HBJQWfNaTP-1" vertex="1">
          <mxGeometry x="535" y="450" width="100" height="30" as="geometry" />
        </mxCell>
      </root>
    </mxGraphModel>
  </diagram>
  <diagram id="4cY6DWKwu6_g2BKbOgwx" name="架构V3.0">
    <mxGraphModel dx="3587" dy="2873" grid="1" gridSize="10" guides="1" tooltips="1" connect="1" arrows="1" fold="1" page="1" pageScale="1" pageWidth="827" pageHeight="1169" math="0" shadow="0">
      <root>
        <mxCell id="0" />
        <mxCell id="1" parent="0" />
        <mxCell id="fPUtCYRt4WRZDevQgIOR-48" value="" style="rounded=0;whiteSpace=wrap;html=1;" vertex="1" parent="1">
          <mxGeometry x="3930" y="180" width="750" height="600" as="geometry" />
        </mxCell>
        <mxCell id="fPUtCYRt4WRZDevQgIOR-38" value="" style="rounded=0;whiteSpace=wrap;html=1;" vertex="1" parent="1">
          <mxGeometry x="4709" y="180" width="470" height="600" as="geometry" />
        </mxCell>
        <mxCell id="yzRrvEfzLXV3O8F469Mh-5" value="" style="rounded=0;whiteSpace=wrap;html=1;dashed=1;strokeWidth=4;strokeColor=#FF3333;fillColor=none;" parent="1" vertex="1">
          <mxGeometry x="75" y="173.42" width="925" height="426.58" as="geometry" />
        </mxCell>
        <mxCell id="B_v7CjqATC_TLTnjSGNu-1" value="" style="rounded=1;whiteSpace=wrap;html=1;shadow=1;fontFamily=Comic Sans MS;fillColor=#ffe6cc;strokeColor=none;" parent="1" vertex="1">
          <mxGeometry x="90" y="196" width="720" height="364" as="geometry" />
        </mxCell>
        <mxCell id="B_v7CjqATC_TLTnjSGNu-4" value="" style="rounded=1;whiteSpace=wrap;html=1;shadow=1;fontFamily=Comic Sans MS;fillColor=#f5f5f5;fontColor=#333333;strokeColor=#666666;" parent="1" vertex="1">
          <mxGeometry x="87.5" y="-20" width="722.5" height="170" as="geometry" />
        </mxCell>
        <mxCell id="B_v7CjqATC_TLTnjSGNu-5" value="" style="rounded=1;whiteSpace=wrap;html=1;shadow=1;fontFamily=Comic Sans MS;fillColor=#f5f5f5;fontColor=#333333;strokeColor=#666666;" parent="1" vertex="1">
          <mxGeometry x="90" y="615" width="520" height="100" as="geometry" />
        </mxCell>
        <mxCell id="B_v7CjqATC_TLTnjSGNu-6" value="ATTA" style="rounded=1;whiteSpace=wrap;html=1;shadow=1;fontFamily=Comic Sans MS;fillColor=#f5f5f5;fontColor=#333333;strokeColor=#666666;" parent="1" vertex="1">
          <mxGeometry x="90" y="930" width="720" height="50" as="geometry" />
        </mxCell>
        <mxCell id="B_v7CjqATC_TLTnjSGNu-7" value="DWD" style="rounded=1;whiteSpace=wrap;html=1;shadow=1;fontFamily=Comic Sans MS;fillColor=#dae8fc;strokeColor=#6c8ebf;" parent="1" vertex="1">
          <mxGeometry x="127" y="73" width="643" height="50" as="geometry" />
        </mxCell>
        <mxCell id="B_v7CjqATC_TLTnjSGNu-8" value="批流一体校验链路" style="text;html=1;align=center;verticalAlign=middle;resizable=0;points=[];autosize=1;strokeColor=none;fillColor=none;fontSize=15;fontFamily=Helvetica;fontColor=#000000;" parent="1" vertex="1">
          <mxGeometry x="-80" y="368" width="140" height="30" as="geometry" />
        </mxCell>
        <mxCell id="B_v7CjqATC_TLTnjSGNu-9" value="离线基础数仓" style="text;html=1;align=center;verticalAlign=middle;resizable=0;points=[];autosize=1;strokeColor=none;fillColor=none;fontSize=15;fontFamily=Helvetica;fontColor=#000000;" parent="1" vertex="1">
          <mxGeometry x="-20" y="53" width="110" height="30" as="geometry" />
        </mxCell>
        <mxCell id="B_v7CjqATC_TLTnjSGNu-10" value="" style="edgeStyle=orthogonalEdgeStyle;rounded=0;orthogonalLoop=1;jettySize=auto;html=1;labelBackgroundColor=none;strokeColor=#000000;fontFamily=Helvetica;fontSize=15;fontColor=#000000;sketch=1;curveFitting=1;jiggle=2;" parent="1" source="B_v7CjqATC_TLTnjSGNu-14" target="B_v7CjqATC_TLTnjSGNu-17" edge="1">
          <mxGeometry relative="1" as="geometry" />
        </mxCell>
        <mxCell id="B_v7CjqATC_TLTnjSGNu-11" value="校验失败" style="edgeLabel;html=1;align=center;verticalAlign=middle;resizable=0;points=[];fontSize=15;fontFamily=Helvetica;fontColor=#FF0000;labelBackgroundColor=default;" parent="B_v7CjqATC_TLTnjSGNu-10" vertex="1" connectable="0">
          <mxGeometry x="-0.2194" y="-2" relative="1" as="geometry">
            <mxPoint x="12" y="-2" as="offset" />
          </mxGeometry>
        </mxCell>
        <mxCell id="B_v7CjqATC_TLTnjSGNu-12" value="" style="edgeStyle=orthogonalEdgeStyle;rounded=0;orthogonalLoop=1;jettySize=auto;html=1;labelBackgroundColor=none;strokeColor=#000000;fontFamily=Helvetica;fontSize=15;fontColor=#000000;entryX=0.35;entryY=0.993;entryDx=0;entryDy=0;entryPerimeter=0;sketch=1;curveFitting=1;jiggle=2;" parent="1" source="B_v7CjqATC_TLTnjSGNu-14" target="B_v7CjqATC_TLTnjSGNu-7" edge="1">
          <mxGeometry relative="1" as="geometry" />
        </mxCell>
        <mxCell id="B_v7CjqATC_TLTnjSGNu-13" value="校验通过" style="edgeLabel;html=1;align=center;verticalAlign=middle;resizable=0;points=[];fontSize=15;fontFamily=Helvetica;fontColor=#009900;labelBackgroundColor=default;" parent="B_v7CjqATC_TLTnjSGNu-12" vertex="1" connectable="0">
          <mxGeometry x="-0.13" y="-1" relative="1" as="geometry">
            <mxPoint y="1" as="offset" />
          </mxGeometry>
        </mxCell>
        <mxCell id="B_v7CjqATC_TLTnjSGNu-14" value="校验结果判断" style="rhombus;whiteSpace=wrap;html=1;shadow=1;labelBackgroundColor=none;strokeColor=#82b366;strokeWidth=1;fontFamily=Helvetica;fontSize=15;sketch=1;curveFitting=1;jiggle=2;fillColor=#d5e8d4;" parent="1" vertex="1">
          <mxGeometry x="273.5" y="216" width="160" height="80" as="geometry" />
        </mxCell>
        <mxCell id="B_v7CjqATC_TLTnjSGNu-15" style="edgeStyle=orthogonalEdgeStyle;rounded=0;orthogonalLoop=1;jettySize=auto;html=1;exitX=0.5;exitY=1;exitDx=0;exitDy=0;entryX=1;entryY=0.5;entryDx=0;entryDy=0;labelBackgroundColor=none;strokeColor=#000000;fontFamily=Helvetica;fontSize=15;fontColor=#000000;sketch=1;curveFitting=1;jiggle=2;" parent="1" source="B_v7CjqATC_TLTnjSGNu-17" target="B_v7CjqATC_TLTnjSGNu-19" edge="1">
          <mxGeometry relative="1" as="geometry" />
        </mxCell>
        <mxCell id="B_v7CjqATC_TLTnjSGNu-16" value="" style="edgeStyle=orthogonalEdgeStyle;rounded=0;orthogonalLoop=1;jettySize=auto;html=1;labelBackgroundColor=none;strokeColor=#000000;fontFamily=Helvetica;fontSize=15;fontColor=#000000;sketch=1;curveFitting=1;jiggle=2;" parent="1" source="B_v7CjqATC_TLTnjSGNu-17" target="B_v7CjqATC_TLTnjSGNu-22" edge="1">
          <mxGeometry relative="1" as="geometry" />
        </mxCell>
        <mxCell id="B_v7CjqATC_TLTnjSGNu-17" value="阻塞/重试策略" style="rounded=1;whiteSpace=wrap;html=1;shadow=1;fontFamily=Comic Sans MS;sketch=1;curveFitting=1;jiggle=2;fillColor=#ffcccc;strokeColor=#36393d;" parent="1" vertex="1">
          <mxGeometry x="545.48" y="226" width="112.26" height="60" as="geometry" />
        </mxCell>
        <mxCell id="B_v7CjqATC_TLTnjSGNu-18" value="" style="edgeStyle=orthogonalEdgeStyle;rounded=0;orthogonalLoop=1;jettySize=auto;html=1;labelBackgroundColor=none;strokeColor=#000000;fontFamily=Helvetica;fontSize=15;fontColor=#000000;sketch=1;curveFitting=1;jiggle=2;" parent="1" source="B_v7CjqATC_TLTnjSGNu-19" target="B_v7CjqATC_TLTnjSGNu-24" edge="1">
          <mxGeometry relative="1" as="geometry" />
        </mxCell>
        <mxCell id="B_v7CjqATC_TLTnjSGNu-19" value="基于Ftime的时间采样" style="rounded=1;whiteSpace=wrap;html=1;shadow=1;fontFamily=Comic Sans MS;sketch=1;curveFitting=1;jiggle=2;fillColor=#e1d5e7;strokeColor=#9673a6;" parent="1" vertex="1">
          <mxGeometry x="178.5" y="396" width="350" height="50" as="geometry" />
        </mxCell>
        <mxCell id="B_v7CjqATC_TLTnjSGNu-20" style="edgeStyle=orthogonalEdgeStyle;rounded=0;orthogonalLoop=1;jettySize=auto;html=1;exitX=0.5;exitY=0;exitDx=0;exitDy=0;entryX=0.941;entryY=1.021;entryDx=0;entryDy=0;labelBackgroundColor=none;strokeColor=#000000;fontFamily=Helvetica;fontSize=15;fontColor=#000000;entryPerimeter=0;sketch=1;curveFitting=1;jiggle=2;" parent="1" source="B_v7CjqATC_TLTnjSGNu-22" target="B_v7CjqATC_TLTnjSGNu-7" edge="1">
          <mxGeometry relative="1" as="geometry" />
        </mxCell>
        <mxCell id="B_v7CjqATC_TLTnjSGNu-21" value="回补" style="edgeLabel;html=1;align=center;verticalAlign=middle;resizable=0;points=[];fontSize=15;fontFamily=Helvetica;fontColor=#FF0000;" parent="B_v7CjqATC_TLTnjSGNu-20" vertex="1" connectable="0">
          <mxGeometry x="-0.0415" relative="1" as="geometry">
            <mxPoint as="offset" />
          </mxGeometry>
        </mxCell>
        <mxCell id="B_v7CjqATC_TLTnjSGNu-22" value="数据修复策略" style="rounded=1;whiteSpace=wrap;html=1;shadow=1;fontFamily=Comic Sans MS;sketch=1;curveFitting=1;jiggle=2;fillColor=#ffcccc;strokeColor=#36393d;" parent="1" vertex="1">
          <mxGeometry x="677.74" y="226" width="112.26" height="60" as="geometry" />
        </mxCell>
        <mxCell id="B_v7CjqATC_TLTnjSGNu-23" style="edgeStyle=orthogonalEdgeStyle;rounded=0;orthogonalLoop=1;jettySize=auto;html=1;exitX=0.5;exitY=0;exitDx=0;exitDy=0;entryX=0.5;entryY=1;entryDx=0;entryDy=0;labelBackgroundColor=none;strokeColor=#000000;fontFamily=Helvetica;fontSize=15;fontColor=#000000;sketch=1;curveFitting=1;jiggle=2;" parent="1" source="B_v7CjqATC_TLTnjSGNu-24" target="B_v7CjqATC_TLTnjSGNu-14" edge="1">
          <mxGeometry relative="1" as="geometry" />
        </mxCell>
        <mxCell id="B_v7CjqATC_TLTnjSGNu-24" value="SLA指标校验" style="rounded=1;whiteSpace=wrap;html=1;shadow=1;fontFamily=Comic Sans MS;sketch=1;curveFitting=1;jiggle=2;fillColor=#ffff88;strokeColor=default;" parent="1" vertex="1">
          <mxGeometry x="178.5" y="318" width="350" height="50" as="geometry" />
        </mxCell>
        <mxCell id="B_v7CjqATC_TLTnjSGNu-25" value="DWS" style="rounded=1;whiteSpace=wrap;html=1;shadow=1;fontFamily=Comic Sans MS;fillColor=#dae8fc;strokeColor=#6c8ebf;" parent="1" vertex="1">
          <mxGeometry x="127" y="13" width="643" height="40" as="geometry" />
        </mxCell>
        <mxCell id="B_v7CjqATC_TLTnjSGNu-26" value="数据处理" style="text;html=1;align=center;verticalAlign=middle;resizable=0;points=[];autosize=1;strokeColor=none;fillColor=none;fontSize=15;fontFamily=Helvetica;fontColor=#000000;" parent="1" vertex="1">
          <mxGeometry x="-5" y="760" width="80" height="30" as="geometry" />
        </mxCell>
        <mxCell id="B_v7CjqATC_TLTnjSGNu-27" style="edgeStyle=orthogonalEdgeStyle;rounded=0;orthogonalLoop=1;jettySize=auto;html=1;exitX=0.5;exitY=0;exitDx=0;exitDy=0;entryX=0.5;entryY=1;entryDx=0;entryDy=0;sketch=1;curveFitting=1;jiggle=2;startArrow=none;strokeColor=#FF3333;" parent="1" source="B_v7CjqATC_TLTnjSGNu-28" target="yzRrvEfzLXV3O8F469Mh-8" edge="1">
          <mxGeometry relative="1" as="geometry" />
        </mxCell>
        <mxCell id="B_v7CjqATC_TLTnjSGNu-28" value="数据湖IceBerg" style="rounded=1;whiteSpace=wrap;html=1;shadow=1;fontFamily=Comic Sans MS;fillColor=#dae8fc;strokeColor=#6c8ebf;" parent="1" vertex="1">
          <mxGeometry x="127" y="640" width="453" height="60" as="geometry" />
        </mxCell>
        <mxCell id="yzRrvEfzLXV3O8F469Mh-32" style="edgeStyle=orthogonalEdgeStyle;rounded=0;orthogonalLoop=1;jettySize=auto;html=1;exitX=0;exitY=0.5;exitDx=0;exitDy=0;entryX=0.5;entryY=1;entryDx=0;entryDy=0;strokeColor=#FF3333;strokeWidth=2;" parent="1" target="yzRrvEfzLXV3O8F469Mh-8" edge="1">
          <mxGeometry relative="1" as="geometry">
            <mxPoint x="547.4799999999996" y="529.46" as="sourcePoint" />
          </mxGeometry>
        </mxCell>
        <mxCell id="B_v7CjqATC_TLTnjSGNu-32" value="实时数据处理" style="text;html=1;align=center;verticalAlign=middle;resizable=0;points=[];autosize=1;strokeColor=none;fillColor=none;" parent="1" vertex="1">
          <mxGeometry x="515" y="615" width="100" height="30" as="geometry" />
        </mxCell>
        <mxCell id="yzRrvEfzLXV3O8F469Mh-33" style="edgeStyle=orthogonalEdgeStyle;rounded=0;orthogonalLoop=1;jettySize=auto;html=1;exitX=0.75;exitY=0;exitDx=0;exitDy=0;strokeColor=#FF3333;" parent="1" source="yzRrvEfzLXV3O8F469Mh-1" edge="1">
          <mxGeometry relative="1" as="geometry">
            <mxPoint x="637.5000000000009" y="554.46" as="targetPoint" />
          </mxGeometry>
        </mxCell>
        <mxCell id="yzRrvEfzLXV3O8F469Mh-1" value="&lt;font style=&quot;background-color: rgb(255, 255, 255);&quot; color=&quot;#ff3333&quot;&gt;统一SQL脚本&lt;/font&gt;" style="text;html=1;strokeColor=#FF3333;fillColor=none;align=center;verticalAlign=middle;whiteSpace=wrap;rounded=0;sketch=1;curveFitting=1;jiggle=2;strokeWidth=2;" parent="1" vertex="1">
          <mxGeometry x="90" y="750" width="730" height="59.46" as="geometry" />
        </mxCell>
        <mxCell id="yzRrvEfzLXV3O8F469Mh-31" style="edgeStyle=orthogonalEdgeStyle;rounded=0;orthogonalLoop=1;jettySize=auto;html=1;exitX=0.5;exitY=0;exitDx=0;exitDy=0;entryX=0.5;entryY=1;entryDx=0;entryDy=0;" parent="1" source="yzRrvEfzLXV3O8F469Mh-8" target="B_v7CjqATC_TLTnjSGNu-19" edge="1">
          <mxGeometry relative="1" as="geometry" />
        </mxCell>
        <mxCell id="yzRrvEfzLXV3O8F469Mh-8" value="&lt;font style=&quot;background-color: rgb(255, 255, 255);&quot; color=&quot;#ff3333&quot;&gt;错误驱动&amp;amp;小时抽查&lt;/font&gt;" style="text;html=1;strokeColor=#FF3333;fillColor=none;align=center;verticalAlign=middle;whiteSpace=wrap;rounded=0;sketch=1;curveFitting=1;jiggle=2;strokeWidth=2;" parent="1" vertex="1">
          <mxGeometry x="178.5" y="470" width="351.5" height="34.46" as="geometry" />
        </mxCell>
        <mxCell id="yzRrvEfzLXV3O8F469Mh-9" value="TDBANK" style="rounded=1;whiteSpace=wrap;html=1;shadow=1;fontFamily=Comic Sans MS;fillColor=#f5f5f5;fontColor=#333333;strokeColor=#666666;" parent="1" vertex="1">
          <mxGeometry x="87.5" y="870" width="722.5" height="50" as="geometry" />
        </mxCell>
        <mxCell id="yzRrvEfzLXV3O8F469Mh-10" value="TUBE" style="rounded=1;whiteSpace=wrap;html=1;shadow=1;fontFamily=Comic Sans MS;fillColor=#f5f5f5;fontColor=#333333;strokeColor=#666666;" parent="1" vertex="1">
          <mxGeometry x="87.5" y="820" width="520" height="40" as="geometry" />
        </mxCell>
        <mxCell id="yzRrvEfzLXV3O8F469Mh-11" value="TDW" style="rounded=1;whiteSpace=wrap;html=1;shadow=1;fontFamily=Comic Sans MS;fillColor=#f5f5f5;fontColor=#333333;strokeColor=#666666;" parent="1" vertex="1">
          <mxGeometry x="620" y="820" width="190" height="40" as="geometry" />
        </mxCell>
        <mxCell id="yzRrvEfzLXV3O8F469Mh-12" value="ODS" style="text;html=1;align=center;verticalAlign=middle;resizable=0;points=[];autosize=1;strokeColor=none;fillColor=none;fontSize=15;fontFamily=Helvetica;fontColor=#000000;" parent="1" vertex="1">
          <mxGeometry y="825" width="60" height="30" as="geometry" />
        </mxCell>
        <mxCell id="yzRrvEfzLXV3O8F469Mh-20" value="DWD" style="text;html=1;align=center;verticalAlign=middle;resizable=0;points=[];autosize=1;strokeColor=none;fillColor=none;fontSize=15;fontFamily=Helvetica;fontColor=#000000;" parent="1" vertex="1">
          <mxGeometry y="655" width="60" height="30" as="geometry" />
        </mxCell>
        <mxCell id="yzRrvEfzLXV3O8F469Mh-21" value="" style="endArrow=classic;html=1;rounded=0;" parent="1" edge="1">
          <mxGeometry width="50" height="50" relative="1" as="geometry">
            <mxPoint x="346.73" y="749" as="sourcePoint" />
            <mxPoint x="346.73" y="699" as="targetPoint" />
          </mxGeometry>
        </mxCell>
        <mxCell id="yzRrvEfzLXV3O8F469Mh-22" value="" style="endArrow=classic;html=1;rounded=0;entryX=1;entryY=0.5;entryDx=0;entryDy=0;exitX=0.874;exitY=-0.006;exitDx=0;exitDy=0;exitPerimeter=0;strokeColor=#FF3333;strokeWidth=2;" parent="1" source="yzRrvEfzLXV3O8F469Mh-1" target="B_v7CjqATC_TLTnjSGNu-28" edge="1">
          <mxGeometry width="50" height="50" relative="1" as="geometry">
            <mxPoint x="330" y="750" as="sourcePoint" />
            <mxPoint x="330" y="700" as="targetPoint" />
            <Array as="points">
              <mxPoint x="728" y="670" />
            </Array>
          </mxGeometry>
        </mxCell>
        <mxCell id="yzRrvEfzLXV3O8F469Mh-24" value="&lt;font color=&quot;#ff3333&quot;&gt;&lt;span style=&quot;background-color: rgb(255, 255, 255);&quot;&gt;回补（flink）&lt;/span&gt;&lt;/font&gt;" style="text;html=1;strokeColor=#FF3333;fillColor=none;align=center;verticalAlign=middle;whiteSpace=wrap;rounded=0;sketch=1;curveFitting=1;jiggle=2;strokeWidth=2;" parent="1" vertex="1">
          <mxGeometry x="667" y="690" width="160" height="37.77" as="geometry" />
        </mxCell>
        <mxCell id="yzRrvEfzLXV3O8F469Mh-27" style="edgeStyle=orthogonalEdgeStyle;rounded=0;orthogonalLoop=1;jettySize=auto;html=1;exitX=0;exitY=0.5;exitDx=0;exitDy=0;entryX=1;entryY=0.5;entryDx=0;entryDy=0;strokeColor=#FF3333;strokeWidth=2;" parent="1" source="yzRrvEfzLXV3O8F469Mh-26" target="yzRrvEfzLXV3O8F469Mh-8" edge="1">
          <mxGeometry relative="1" as="geometry" />
        </mxCell>
        <mxCell id="7pzoKwNT2Ji58k2ow-Ul-2" value="&lt;font color=&quot;#ff3333&quot;&gt;错误推送&lt;/font&gt;" style="edgeLabel;html=1;align=center;verticalAlign=middle;resizable=0;points=[];" parent="yzRrvEfzLXV3O8F469Mh-27" vertex="1" connectable="0">
          <mxGeometry x="-0.4839" y="3" relative="1" as="geometry">
            <mxPoint x="1" y="-3" as="offset" />
          </mxGeometry>
        </mxCell>
        <mxCell id="yzRrvEfzLXV3O8F469Mh-26" value="&lt;font style=&quot;background-color: rgb(255, 255, 255);&quot;&gt;全拓扑监控&lt;/font&gt;" style="text;html=1;strokeColor=none;fillColor=#ffe6cc;align=center;verticalAlign=middle;whiteSpace=wrap;rounded=1;strokeWidth=2;shadow=1;" parent="1" vertex="1">
          <mxGeometry x="840" y="200" width="130" height="360" as="geometry" />
        </mxCell>
        <mxCell id="7pzoKwNT2Ji58k2ow-Ul-1" value="ods等效计算&lt;font color=&quot;#ff3333&quot;&gt;（flink）&lt;/font&gt;" style="rounded=1;whiteSpace=wrap;html=1;shadow=1;fontFamily=Comic Sans MS;sketch=1;curveFitting=1;jiggle=2;fillColor=#fff2cc;strokeColor=#FF3333;" parent="1" vertex="1">
          <mxGeometry x="545.48" y="500" width="180" height="50" as="geometry" />
        </mxCell>
        <mxCell id="fPUtCYRt4WRZDevQgIOR-14" style="edgeStyle=orthogonalEdgeStyle;rounded=0;orthogonalLoop=1;jettySize=auto;html=1;exitX=1;exitY=0.5;exitDx=0;exitDy=0;entryX=0;entryY=0.5;entryDx=0;entryDy=0;" edge="1" parent="1" source="Quygos_AWPghaoPCwN_K-1" target="fPUtCYRt4WRZDevQgIOR-5">
          <mxGeometry relative="1" as="geometry" />
        </mxCell>
        <mxCell id="fPUtCYRt4WRZDevQgIOR-46" value="&lt;font style=&quot;font-size: 29px;&quot;&gt;入湖&lt;/font&gt;" style="edgeLabel;html=1;align=center;verticalAlign=middle;resizable=0;points=[];" vertex="1" connectable="0" parent="fPUtCYRt4WRZDevQgIOR-14">
          <mxGeometry x="0.7026" y="-3" relative="1" as="geometry">
            <mxPoint x="-1" as="offset" />
          </mxGeometry>
        </mxCell>
        <mxCell id="Quygos_AWPghaoPCwN_K-1" value="&lt;font style=&quot;font-size: 24px;&quot;&gt;TDBANK&lt;/font&gt;" style="rounded=1;whiteSpace=wrap;html=1;shadow=1;fontFamily=Comic Sans MS;" vertex="1" parent="1">
          <mxGeometry x="3622" y="232" width="240" height="180.27" as="geometry" />
        </mxCell>
        <mxCell id="fPUtCYRt4WRZDevQgIOR-40" style="edgeStyle=orthogonalEdgeStyle;rounded=0;orthogonalLoop=1;jettySize=auto;html=1;entryX=0;entryY=0.5;entryDx=0;entryDy=0;" edge="1" parent="1" target="Quygos_AWPghaoPCwN_K-1">
          <mxGeometry relative="1" as="geometry">
            <mxPoint x="3500" y="322" as="sourcePoint" />
          </mxGeometry>
        </mxCell>
        <mxCell id="fPUtCYRt4WRZDevQgIOR-41" style="edgeStyle=orthogonalEdgeStyle;rounded=0;orthogonalLoop=1;jettySize=auto;html=1;exitX=1.002;exitY=0.815;exitDx=0;exitDy=0;entryX=0;entryY=0.5;entryDx=0;entryDy=0;exitPerimeter=0;" edge="1" parent="1" source="Quygos_AWPghaoPCwN_K-2" target="fPUtCYRt4WRZDevQgIOR-8">
          <mxGeometry relative="1" as="geometry" />
        </mxCell>
        <mxCell id="fPUtCYRt4WRZDevQgIOR-42" value="&lt;font style=&quot;font-size: 19px;&quot;&gt;小时留存&lt;/font&gt;" style="edgeLabel;html=1;align=center;verticalAlign=middle;resizable=0;points=[];" vertex="1" connectable="0" parent="fPUtCYRt4WRZDevQgIOR-41">
          <mxGeometry x="-0.0746" relative="1" as="geometry">
            <mxPoint as="offset" />
          </mxGeometry>
        </mxCell>
        <mxCell id="Quygos_AWPghaoPCwN_K-2" value="&lt;font style=&quot;font-size: 24px;&quot;&gt;ATTA&lt;/font&gt;" style="rounded=1;whiteSpace=wrap;html=1;shadow=1;fontFamily=Comic Sans MS;" vertex="1" parent="1">
          <mxGeometry x="3260" y="209.77" width="240" height="518" as="geometry" />
        </mxCell>
        <mxCell id="Quygos_AWPghaoPCwN_K-3" value="" style="rounded=0;whiteSpace=wrap;html=1;dashed=1;strokeWidth=4;strokeColor=#FF3333;fillColor=none;" vertex="1" parent="1">
          <mxGeometry x="1809" y="123.42" width="801" height="426.58" as="geometry" />
        </mxCell>
        <mxCell id="Quygos_AWPghaoPCwN_K-4" value="" style="rounded=1;whiteSpace=wrap;html=1;shadow=1;fontFamily=Comic Sans MS;fillColor=#ffe6cc;strokeColor=none;" vertex="1" parent="1">
          <mxGeometry x="1824" y="146" width="720" height="364" as="geometry" />
        </mxCell>
        <mxCell id="Quygos_AWPghaoPCwN_K-5" value="" style="rounded=1;whiteSpace=wrap;html=1;shadow=1;fontFamily=Comic Sans MS;fillColor=#f5f5f5;fontColor=#333333;strokeColor=#666666;" vertex="1" parent="1">
          <mxGeometry x="1821.5" y="-70" width="722.5" height="170" as="geometry" />
        </mxCell>
        <mxCell id="Quygos_AWPghaoPCwN_K-6" value="" style="rounded=1;whiteSpace=wrap;html=1;shadow=1;fontFamily=Comic Sans MS;fillColor=#f5f5f5;fontColor=#333333;strokeColor=#666666;" vertex="1" parent="1">
          <mxGeometry x="1824" y="565" width="520" height="100" as="geometry" />
        </mxCell>
        <mxCell id="Quygos_AWPghaoPCwN_K-7" value="ATTA" style="rounded=1;whiteSpace=wrap;html=1;shadow=1;fontFamily=Comic Sans MS;fillColor=#f5f5f5;fontColor=#333333;strokeColor=#666666;" vertex="1" parent="1">
          <mxGeometry x="1824" y="880" width="720" height="50" as="geometry" />
        </mxCell>
        <mxCell id="Quygos_AWPghaoPCwN_K-8" value="DWD" style="rounded=1;whiteSpace=wrap;html=1;shadow=1;fontFamily=Comic Sans MS;fillColor=#dae8fc;strokeColor=#6c8ebf;" vertex="1" parent="1">
          <mxGeometry x="1861" y="23" width="643" height="50" as="geometry" />
        </mxCell>
        <mxCell id="Quygos_AWPghaoPCwN_K-9" value="批流一体校验链路" style="text;html=1;align=center;verticalAlign=middle;resizable=0;points=[];autosize=1;strokeColor=none;fillColor=none;fontSize=15;fontFamily=Helvetica;fontColor=#000000;" vertex="1" parent="1">
          <mxGeometry x="1654" y="318" width="140" height="30" as="geometry" />
        </mxCell>
        <mxCell id="Quygos_AWPghaoPCwN_K-10" value="离线基础数仓" style="text;html=1;align=center;verticalAlign=middle;resizable=0;points=[];autosize=1;strokeColor=none;fillColor=none;fontSize=15;fontFamily=Helvetica;fontColor=#000000;" vertex="1" parent="1">
          <mxGeometry x="1714" y="3" width="110" height="30" as="geometry" />
        </mxCell>
        <mxCell id="Quygos_AWPghaoPCwN_K-11" value="" style="edgeStyle=orthogonalEdgeStyle;rounded=0;orthogonalLoop=1;jettySize=auto;html=1;labelBackgroundColor=none;strokeColor=#000000;fontFamily=Helvetica;fontSize=15;fontColor=#000000;sketch=1;curveFitting=1;jiggle=2;" edge="1" parent="1" source="Quygos_AWPghaoPCwN_K-15" target="Quygos_AWPghaoPCwN_K-18">
          <mxGeometry relative="1" as="geometry" />
        </mxCell>
        <mxCell id="Quygos_AWPghaoPCwN_K-12" value="校验失败" style="edgeLabel;html=1;align=center;verticalAlign=middle;resizable=0;points=[];fontSize=15;fontFamily=Helvetica;fontColor=#FF0000;labelBackgroundColor=default;" vertex="1" connectable="0" parent="Quygos_AWPghaoPCwN_K-11">
          <mxGeometry x="-0.2194" y="-2" relative="1" as="geometry">
            <mxPoint x="12" y="-2" as="offset" />
          </mxGeometry>
        </mxCell>
        <mxCell id="Quygos_AWPghaoPCwN_K-13" value="" style="edgeStyle=orthogonalEdgeStyle;rounded=0;orthogonalLoop=1;jettySize=auto;html=1;labelBackgroundColor=none;strokeColor=#000000;fontFamily=Helvetica;fontSize=15;fontColor=#000000;entryX=0.35;entryY=0.993;entryDx=0;entryDy=0;entryPerimeter=0;sketch=1;curveFitting=1;jiggle=2;" edge="1" parent="1" source="Quygos_AWPghaoPCwN_K-15" target="Quygos_AWPghaoPCwN_K-8">
          <mxGeometry relative="1" as="geometry" />
        </mxCell>
        <mxCell id="Quygos_AWPghaoPCwN_K-14" value="校验通过" style="edgeLabel;html=1;align=center;verticalAlign=middle;resizable=0;points=[];fontSize=15;fontFamily=Helvetica;fontColor=#009900;labelBackgroundColor=default;" vertex="1" connectable="0" parent="Quygos_AWPghaoPCwN_K-13">
          <mxGeometry x="-0.13" y="-1" relative="1" as="geometry">
            <mxPoint y="1" as="offset" />
          </mxGeometry>
        </mxCell>
        <mxCell id="Quygos_AWPghaoPCwN_K-15" value="校验结果判断" style="rhombus;whiteSpace=wrap;html=1;shadow=1;labelBackgroundColor=none;strokeColor=#82b366;strokeWidth=1;fontFamily=Helvetica;fontSize=15;sketch=1;curveFitting=1;jiggle=2;fillColor=#d5e8d4;" vertex="1" parent="1">
          <mxGeometry x="2007.5" y="166" width="160" height="80" as="geometry" />
        </mxCell>
        <mxCell id="Quygos_AWPghaoPCwN_K-16" style="edgeStyle=orthogonalEdgeStyle;rounded=0;orthogonalLoop=1;jettySize=auto;html=1;exitX=0.5;exitY=1;exitDx=0;exitDy=0;entryX=1;entryY=0.5;entryDx=0;entryDy=0;labelBackgroundColor=none;strokeColor=#000000;fontFamily=Helvetica;fontSize=15;fontColor=#000000;sketch=1;curveFitting=1;jiggle=2;" edge="1" parent="1" source="Quygos_AWPghaoPCwN_K-18" target="Quygos_AWPghaoPCwN_K-20">
          <mxGeometry relative="1" as="geometry" />
        </mxCell>
        <mxCell id="Quygos_AWPghaoPCwN_K-17" value="" style="edgeStyle=orthogonalEdgeStyle;rounded=0;orthogonalLoop=1;jettySize=auto;html=1;labelBackgroundColor=none;strokeColor=#000000;fontFamily=Helvetica;fontSize=15;fontColor=#000000;sketch=1;curveFitting=1;jiggle=2;" edge="1" parent="1" source="Quygos_AWPghaoPCwN_K-18" target="Quygos_AWPghaoPCwN_K-23">
          <mxGeometry relative="1" as="geometry" />
        </mxCell>
        <mxCell id="Quygos_AWPghaoPCwN_K-18" value="阻塞/重试策略" style="rounded=1;whiteSpace=wrap;html=1;shadow=1;fontFamily=Comic Sans MS;sketch=1;curveFitting=1;jiggle=2;fillColor=#ffcccc;strokeColor=#36393d;" vertex="1" parent="1">
          <mxGeometry x="2279.48" y="176" width="112.26" height="60" as="geometry" />
        </mxCell>
        <mxCell id="Quygos_AWPghaoPCwN_K-19" value="" style="edgeStyle=orthogonalEdgeStyle;rounded=0;orthogonalLoop=1;jettySize=auto;html=1;labelBackgroundColor=none;strokeColor=#000000;fontFamily=Helvetica;fontSize=15;fontColor=#000000;sketch=1;curveFitting=1;jiggle=2;" edge="1" parent="1" source="Quygos_AWPghaoPCwN_K-20" target="Quygos_AWPghaoPCwN_K-25">
          <mxGeometry relative="1" as="geometry" />
        </mxCell>
        <mxCell id="Quygos_AWPghaoPCwN_K-20" value="基于Ftime的时间采样" style="rounded=1;whiteSpace=wrap;html=1;shadow=1;fontFamily=Comic Sans MS;sketch=1;curveFitting=1;jiggle=2;fillColor=#e1d5e7;strokeColor=#9673a6;" vertex="1" parent="1">
          <mxGeometry x="1912.5" y="346" width="350" height="50" as="geometry" />
        </mxCell>
        <mxCell id="fPUtCYRt4WRZDevQgIOR-1" style="edgeStyle=orthogonalEdgeStyle;rounded=0;orthogonalLoop=1;jettySize=auto;html=1;exitX=1;exitY=0.5;exitDx=0;exitDy=0;entryX=1;entryY=0.5;entryDx=0;entryDy=0;" edge="1" parent="1" source="Quygos_AWPghaoPCwN_K-23" target="Quygos_AWPghaoPCwN_K-43">
          <mxGeometry relative="1" as="geometry" />
        </mxCell>
        <mxCell id="Quygos_AWPghaoPCwN_K-23" value="数据修复策略" style="rounded=1;whiteSpace=wrap;html=1;shadow=1;fontFamily=Comic Sans MS;sketch=1;curveFitting=1;jiggle=2;fillColor=#ffcccc;strokeColor=#36393d;" vertex="1" parent="1">
          <mxGeometry x="2411.74" y="176" width="112.26" height="60" as="geometry" />
        </mxCell>
        <mxCell id="Quygos_AWPghaoPCwN_K-24" style="edgeStyle=orthogonalEdgeStyle;rounded=0;orthogonalLoop=1;jettySize=auto;html=1;exitX=0.5;exitY=0;exitDx=0;exitDy=0;entryX=0.5;entryY=1;entryDx=0;entryDy=0;labelBackgroundColor=none;strokeColor=#000000;fontFamily=Helvetica;fontSize=15;fontColor=#000000;sketch=1;curveFitting=1;jiggle=2;" edge="1" parent="1" source="Quygos_AWPghaoPCwN_K-25" target="Quygos_AWPghaoPCwN_K-15">
          <mxGeometry relative="1" as="geometry" />
        </mxCell>
        <mxCell id="Quygos_AWPghaoPCwN_K-25" value="SLA指标校验" style="rounded=1;whiteSpace=wrap;html=1;shadow=1;fontFamily=Comic Sans MS;sketch=1;curveFitting=1;jiggle=2;fillColor=#ffff88;strokeColor=default;" vertex="1" parent="1">
          <mxGeometry x="1912.5" y="268" width="350" height="50" as="geometry" />
        </mxCell>
        <mxCell id="Quygos_AWPghaoPCwN_K-26" value="DWS" style="rounded=1;whiteSpace=wrap;html=1;shadow=1;fontFamily=Comic Sans MS;fillColor=#dae8fc;strokeColor=#6c8ebf;" vertex="1" parent="1">
          <mxGeometry x="1861" y="-37" width="643" height="40" as="geometry" />
        </mxCell>
        <mxCell id="Quygos_AWPghaoPCwN_K-27" value="数据处理" style="text;html=1;align=center;verticalAlign=middle;resizable=0;points=[];autosize=1;strokeColor=none;fillColor=none;fontSize=15;fontFamily=Helvetica;fontColor=#000000;" vertex="1" parent="1">
          <mxGeometry x="1729" y="710" width="80" height="30" as="geometry" />
        </mxCell>
        <mxCell id="Quygos_AWPghaoPCwN_K-28" style="edgeStyle=orthogonalEdgeStyle;rounded=0;orthogonalLoop=1;jettySize=auto;html=1;exitX=0.5;exitY=0;exitDx=0;exitDy=0;entryX=0.5;entryY=1;entryDx=0;entryDy=0;sketch=1;curveFitting=1;jiggle=2;startArrow=none;strokeColor=#FF3333;" edge="1" parent="1" source="Quygos_AWPghaoPCwN_K-29">
          <mxGeometry relative="1" as="geometry">
            <mxPoint x="2088.25" y="454.46000000000004" as="targetPoint" />
          </mxGeometry>
        </mxCell>
        <mxCell id="Quygos_AWPghaoPCwN_K-29" value="数据湖IceBerg" style="rounded=1;whiteSpace=wrap;html=1;shadow=1;fontFamily=Comic Sans MS;fillColor=#dae8fc;strokeColor=#6c8ebf;" vertex="1" parent="1">
          <mxGeometry x="1861" y="590" width="453" height="60" as="geometry" />
        </mxCell>
        <mxCell id="Quygos_AWPghaoPCwN_K-30" style="edgeStyle=orthogonalEdgeStyle;rounded=0;orthogonalLoop=1;jettySize=auto;html=1;exitX=0;exitY=0.5;exitDx=0;exitDy=0;entryX=0.5;entryY=1;entryDx=0;entryDy=0;strokeColor=#FF3333;strokeWidth=2;" edge="1" parent="1" target="Quygos_AWPghaoPCwN_K-20">
          <mxGeometry relative="1" as="geometry">
            <mxPoint x="2281.4799999999996" y="479.46000000000004" as="sourcePoint" />
            <mxPoint x="2088.25" y="454.46000000000004" as="targetPoint" />
          </mxGeometry>
        </mxCell>
        <mxCell id="Quygos_AWPghaoPCwN_K-31" value="实时数据处理" style="text;html=1;align=center;verticalAlign=middle;resizable=0;points=[];autosize=1;strokeColor=none;fillColor=none;" vertex="1" parent="1">
          <mxGeometry x="2249" y="565" width="100" height="30" as="geometry" />
        </mxCell>
        <mxCell id="Quygos_AWPghaoPCwN_K-32" style="edgeStyle=orthogonalEdgeStyle;rounded=0;orthogonalLoop=1;jettySize=auto;html=1;exitX=0.75;exitY=0;exitDx=0;exitDy=0;strokeColor=#FF3333;" edge="1" parent="1" source="Quygos_AWPghaoPCwN_K-33">
          <mxGeometry relative="1" as="geometry">
            <mxPoint x="2371.500000000001" y="504.46000000000004" as="targetPoint" />
          </mxGeometry>
        </mxCell>
        <mxCell id="Quygos_AWPghaoPCwN_K-33" value="&lt;font style=&quot;background-color: rgb(255, 255, 255);&quot; color=&quot;#ff3333&quot;&gt;统一SQL脚本&lt;/font&gt;" style="text;html=1;strokeColor=#FF3333;fillColor=none;align=center;verticalAlign=middle;whiteSpace=wrap;rounded=0;sketch=1;curveFitting=1;jiggle=2;strokeWidth=2;" vertex="1" parent="1">
          <mxGeometry x="1824" y="700" width="730" height="59.46" as="geometry" />
        </mxCell>
        <mxCell id="Quygos_AWPghaoPCwN_K-36" value="TDBANK" style="rounded=1;whiteSpace=wrap;html=1;shadow=1;fontFamily=Comic Sans MS;fillColor=#f5f5f5;fontColor=#333333;strokeColor=#666666;" vertex="1" parent="1">
          <mxGeometry x="1821.5" y="820" width="722.5" height="50" as="geometry" />
        </mxCell>
        <mxCell id="Quygos_AWPghaoPCwN_K-37" value="TUBE" style="rounded=1;whiteSpace=wrap;html=1;shadow=1;fontFamily=Comic Sans MS;fillColor=#f5f5f5;fontColor=#333333;strokeColor=#666666;" vertex="1" parent="1">
          <mxGeometry x="1821.5" y="770" width="520" height="40" as="geometry" />
        </mxCell>
        <mxCell id="Quygos_AWPghaoPCwN_K-38" value="TDW" style="rounded=1;whiteSpace=wrap;html=1;shadow=1;fontFamily=Comic Sans MS;fillColor=#f5f5f5;fontColor=#333333;strokeColor=#666666;" vertex="1" parent="1">
          <mxGeometry x="2354" y="770" width="190" height="40" as="geometry" />
        </mxCell>
        <mxCell id="Quygos_AWPghaoPCwN_K-39" value="ODS" style="text;html=1;align=center;verticalAlign=middle;resizable=0;points=[];autosize=1;strokeColor=none;fillColor=none;fontSize=15;fontFamily=Helvetica;fontColor=#000000;" vertex="1" parent="1">
          <mxGeometry x="1734" y="775" width="60" height="30" as="geometry" />
        </mxCell>
        <mxCell id="Quygos_AWPghaoPCwN_K-40" value="DWD" style="text;html=1;align=center;verticalAlign=middle;resizable=0;points=[];autosize=1;strokeColor=none;fillColor=none;fontSize=15;fontFamily=Helvetica;fontColor=#000000;" vertex="1" parent="1">
          <mxGeometry x="1734" y="605" width="60" height="30" as="geometry" />
        </mxCell>
        <mxCell id="Quygos_AWPghaoPCwN_K-41" value="" style="endArrow=classic;html=1;rounded=0;" edge="1" parent="1">
          <mxGeometry width="50" height="50" relative="1" as="geometry">
            <mxPoint x="2080.73" y="699" as="sourcePoint" />
            <mxPoint x="2080.73" y="649" as="targetPoint" />
          </mxGeometry>
        </mxCell>
        <mxCell id="fPUtCYRt4WRZDevQgIOR-4" style="edgeStyle=orthogonalEdgeStyle;rounded=0;orthogonalLoop=1;jettySize=auto;html=1;exitX=0;exitY=0.5;exitDx=0;exitDy=0;entryX=1;entryY=0.5;entryDx=0;entryDy=0;" edge="1" parent="1" source="Quygos_AWPghaoPCwN_K-43" target="Quygos_AWPghaoPCwN_K-6">
          <mxGeometry relative="1" as="geometry" />
        </mxCell>
        <mxCell id="Quygos_AWPghaoPCwN_K-43" value="&lt;font color=&quot;#ff3333&quot;&gt;&lt;span style=&quot;background-color: rgb(255, 255, 255);&quot;&gt;回补（flink）&lt;/span&gt;&lt;/font&gt;" style="text;html=1;strokeColor=#FF3333;fillColor=none;align=center;verticalAlign=middle;whiteSpace=wrap;rounded=0;sketch=1;curveFitting=1;jiggle=2;strokeWidth=2;" vertex="1" parent="1">
          <mxGeometry x="2401" y="574" width="160" height="80" as="geometry" />
        </mxCell>
        <mxCell id="Quygos_AWPghaoPCwN_K-47" value="ods等效计算&lt;font color=&quot;#ff3333&quot;&gt;（flink）&lt;/font&gt;" style="rounded=1;whiteSpace=wrap;html=1;shadow=1;fontFamily=Comic Sans MS;sketch=1;curveFitting=1;jiggle=2;fillColor=#fff2cc;strokeColor=#FF3333;" vertex="1" parent="1">
          <mxGeometry x="2279.48" y="450" width="180" height="50" as="geometry" />
        </mxCell>
        <mxCell id="fPUtCYRt4WRZDevQgIOR-20" style="edgeStyle=orthogonalEdgeStyle;rounded=0;orthogonalLoop=1;jettySize=auto;html=1;exitX=0.75;exitY=1;exitDx=0;exitDy=0;entryX=0.5;entryY=0;entryDx=0;entryDy=0;" edge="1" parent="1" source="fPUtCYRt4WRZDevQgIOR-5" target="fPUtCYRt4WRZDevQgIOR-13">
          <mxGeometry relative="1" as="geometry" />
        </mxCell>
        <mxCell id="fPUtCYRt4WRZDevQgIOR-49" style="edgeStyle=orthogonalEdgeStyle;rounded=0;orthogonalLoop=1;jettySize=auto;html=1;exitX=1;exitY=0.5;exitDx=0;exitDy=0;entryX=0;entryY=0.5;entryDx=0;entryDy=0;" edge="1" parent="1" source="fPUtCYRt4WRZDevQgIOR-5" target="fPUtCYRt4WRZDevQgIOR-35">
          <mxGeometry relative="1" as="geometry" />
        </mxCell>
        <mxCell id="fPUtCYRt4WRZDevQgIOR-5" value="&lt;span style=&quot;font-size: x-large;&quot;&gt;iceberg&lt;/span&gt;" style="rounded=1;whiteSpace=wrap;html=1;shadow=1;fontFamily=Comic Sans MS;" vertex="1" parent="1">
          <mxGeometry x="4389" y="250" width="240" height="137.77" as="geometry" />
        </mxCell>
        <mxCell id="fPUtCYRt4WRZDevQgIOR-17" style="edgeStyle=orthogonalEdgeStyle;rounded=0;orthogonalLoop=1;jettySize=auto;html=1;exitX=1;exitY=0.5;exitDx=0;exitDy=0;entryX=0.25;entryY=1;entryDx=0;entryDy=0;" edge="1" parent="1" source="fPUtCYRt4WRZDevQgIOR-7" target="fPUtCYRt4WRZDevQgIOR-5">
          <mxGeometry relative="1" as="geometry" />
        </mxCell>
        <mxCell id="fPUtCYRt4WRZDevQgIOR-18" value="&lt;font style=&quot;font-size: 19px;&quot;&gt;修复&lt;/font&gt;" style="edgeLabel;html=1;align=center;verticalAlign=middle;resizable=0;points=[];" vertex="1" connectable="0" parent="fPUtCYRt4WRZDevQgIOR-17">
          <mxGeometry x="0.548" y="1" relative="1" as="geometry">
            <mxPoint as="offset" />
          </mxGeometry>
        </mxCell>
        <mxCell id="fPUtCYRt4WRZDevQgIOR-7" value="&lt;font size=&quot;5&quot;&gt;离线修复&lt;/font&gt;" style="rounded=0;whiteSpace=wrap;html=1;shadow=1;fontFamily=Comic Sans MS;fillColor=#f8cecc;strokeColor=#b85450;" vertex="1" parent="1">
          <mxGeometry x="4039" y="583" width="180" height="100" as="geometry" />
        </mxCell>
        <mxCell id="fPUtCYRt4WRZDevQgIOR-23" style="edgeStyle=orthogonalEdgeStyle;rounded=0;orthogonalLoop=1;jettySize=auto;html=1;exitX=0.5;exitY=1;exitDx=0;exitDy=0;entryX=0.5;entryY=1;entryDx=0;entryDy=0;" edge="1" parent="1" source="fPUtCYRt4WRZDevQgIOR-8" target="fPUtCYRt4WRZDevQgIOR-13">
          <mxGeometry relative="1" as="geometry" />
        </mxCell>
        <mxCell id="fPUtCYRt4WRZDevQgIOR-43" style="edgeStyle=orthogonalEdgeStyle;rounded=0;orthogonalLoop=1;jettySize=auto;html=1;exitX=1;exitY=0.5;exitDx=0;exitDy=0;entryX=0;entryY=0.5;entryDx=0;entryDy=0;" edge="1" parent="1" source="fPUtCYRt4WRZDevQgIOR-8" target="fPUtCYRt4WRZDevQgIOR-7">
          <mxGeometry relative="1" as="geometry" />
        </mxCell>
        <mxCell id="fPUtCYRt4WRZDevQgIOR-8" value="&lt;font style=&quot;font-size: 24px;&quot;&gt;Tdw&lt;/font&gt;" style="rounded=1;whiteSpace=wrap;html=1;shadow=1;fontFamily=Comic Sans MS;" vertex="1" parent="1">
          <mxGeometry x="3622" y="548" width="240" height="170" as="geometry" />
        </mxCell>
        <mxCell id="fPUtCYRt4WRZDevQgIOR-24" style="edgeStyle=orthogonalEdgeStyle;rounded=0;orthogonalLoop=1;jettySize=auto;html=1;exitX=0;exitY=0.5;exitDx=0;exitDy=0;entryX=1;entryY=0.75;entryDx=0;entryDy=0;" edge="1" parent="1" source="fPUtCYRt4WRZDevQgIOR-13" target="fPUtCYRt4WRZDevQgIOR-7">
          <mxGeometry relative="1" as="geometry" />
        </mxCell>
        <mxCell id="fPUtCYRt4WRZDevQgIOR-26" value="&lt;font style=&quot;font-size: 19px;&quot;&gt;未通过&lt;/font&gt;" style="edgeLabel;html=1;align=center;verticalAlign=middle;resizable=0;points=[];" vertex="1" connectable="0" parent="fPUtCYRt4WRZDevQgIOR-24">
          <mxGeometry x="-0.0549" y="1" relative="1" as="geometry">
            <mxPoint as="offset" />
          </mxGeometry>
        </mxCell>
        <mxCell id="fPUtCYRt4WRZDevQgIOR-28" style="edgeStyle=orthogonalEdgeStyle;rounded=0;orthogonalLoop=1;jettySize=auto;html=1;exitX=1;exitY=0.5;exitDx=0;exitDy=0;entryX=0;entryY=0.5;entryDx=0;entryDy=0;" edge="1" parent="1" source="fPUtCYRt4WRZDevQgIOR-13" target="fPUtCYRt4WRZDevQgIOR-27">
          <mxGeometry relative="1" as="geometry" />
        </mxCell>
        <mxCell id="fPUtCYRt4WRZDevQgIOR-29" value="&lt;font style=&quot;font-size: 19px;&quot;&gt;通过&lt;/font&gt;" style="edgeLabel;html=1;align=center;verticalAlign=middle;resizable=0;points=[];" vertex="1" connectable="0" parent="fPUtCYRt4WRZDevQgIOR-28">
          <mxGeometry x="-0.1243" y="-1" relative="1" as="geometry">
            <mxPoint as="offset" />
          </mxGeometry>
        </mxCell>
        <mxCell id="fPUtCYRt4WRZDevQgIOR-13" value="&lt;font style=&quot;font-size: 24px;&quot;&gt;Check校验&lt;/font&gt;" style="rhombus;whiteSpace=wrap;html=1;fillColor=#d5e8d4;strokeColor=#82b366;" vertex="1" parent="1">
          <mxGeometry x="4469" y="593" width="200" height="120.63" as="geometry" />
        </mxCell>
        <mxCell id="yzcOQ0roRdvbW-zQb3R9-4" style="edgeStyle=orthogonalEdgeStyle;rounded=0;orthogonalLoop=1;jettySize=auto;html=1;exitX=1;exitY=0.5;exitDx=0;exitDy=0;entryX=0;entryY=0.5;entryDx=0;entryDy=0;" edge="1" parent="1" source="fPUtCYRt4WRZDevQgIOR-27" target="fPUtCYRt4WRZDevQgIOR-31">
          <mxGeometry relative="1" as="geometry" />
        </mxCell>
        <mxCell id="fPUtCYRt4WRZDevQgIOR-27" value="&lt;font size=&quot;5&quot;&gt;离线任务（小时/天）&lt;/font&gt;" style="rounded=0;whiteSpace=wrap;html=1;shadow=1;fontFamily=Comic Sans MS;" vertex="1" parent="1">
          <mxGeometry x="4854" y="606" width="180" height="100" as="geometry" />
        </mxCell>
        <mxCell id="fPUtCYRt4WRZDevQgIOR-31" value="&lt;font size=&quot;5&quot;&gt;大屏、报表、数据分析&lt;/font&gt;" style="rounded=1;whiteSpace=wrap;html=1;shadow=1;fontFamily=Comic Sans MS;" vertex="1" parent="1">
          <mxGeometry x="5229" y="180" width="240" height="570" as="geometry" />
        </mxCell>
        <mxCell id="yzcOQ0roRdvbW-zQb3R9-2" style="edgeStyle=orthogonalEdgeStyle;rounded=0;orthogonalLoop=1;jettySize=auto;html=1;exitX=1;exitY=0.5;exitDx=0;exitDy=0;entryX=0;entryY=0.5;entryDx=0;entryDy=0;" edge="1" parent="1" source="fPUtCYRt4WRZDevQgIOR-35" target="fPUtCYRt4WRZDevQgIOR-31">
          <mxGeometry relative="1" as="geometry" />
        </mxCell>
        <mxCell id="fPUtCYRt4WRZDevQgIOR-35" value="&lt;font size=&quot;5&quot;&gt;准实时任务（10mins）&lt;/font&gt;" style="rounded=0;whiteSpace=wrap;html=1;shadow=1;fontFamily=Comic Sans MS;" vertex="1" parent="1">
          <mxGeometry x="4847" y="267.73" width="185" height="100" as="geometry" />
        </mxCell>
        <mxCell id="fPUtCYRt4WRZDevQgIOR-45" value="&lt;font size=&quot;5&quot;&gt;实时dwd&lt;/font&gt;" style="rounded=1;whiteSpace=wrap;html=1;shadow=1;fontFamily=Comic Sans MS;" vertex="1" parent="1">
          <mxGeometry x="4009" y="260" width="240" height="125.88" as="geometry" />
        </mxCell>
      </root>
    </mxGraphModel>
  </diagram>
</mxfile>
